HIERARCHY
ROOT Hips
{
	OFFSET 0.000000 0.000000 0.000000
	CHANNELS 6 Xposition Yposition Zposition Zrotation Yrotation Xrotation 
	JOINT LHipJoint
	{
		OFFSET 0.000000 0.000000 0.000000
		CHANNELS 3 Zrotation Yrotation Xrotation
		JOINT LeftUpLeg
		{
			OFFSET 1.363060 -1.794630 0.839290
			CHANNELS 3 Zrotation Yrotation Xrotation
			JOINT LeftLeg
			{
				OFFSET 2.448110 -6.726130 0.000000
				CHANNELS 3 Zrotation Yrotation Xrotation
				JOINT LeftFoot
				{
					OFFSET 2.562200 -7.039590 0.000000
					CHANNELS 3 Zrotation Yrotation Xrotation
					JOINT LeftToeBase
					{
						OFFSET 0.157640 -0.433110 2.322550
						CHANNELS 3 Zrotation Yrotation Xrotation
						End Site
						{
							OFFSET 0.000000 0.000000 0.000000
						}
					}
				}
			}
		}
	}
	JOINT RHipJoint
	{
		OFFSET 0.000000 0.000000 0.000000
		CHANNELS 3 Zrotation Yrotation Xrotation
		JOINT RightUpLeg
		{
			OFFSET -1.305520 -1.794630 0.839290
			CHANNELS 3 Zrotation Yrotation Xrotation
			JOINT RightLeg
			{
				OFFSET -2.542530 -6.985550 0.000000
				CHANNELS 3 Zrotation Yrotation Xrotation
				JOINT RightFoot
				{
					OFFSET -2.568260 -7.056230 0.000000
					CHANNELS 3 Zrotation Yrotation Xrotation
					JOINT RightToeBase
					{
						OFFSET -0.164730 -0.452590 2.363150
						CHANNELS 3 Zrotation Yrotation Xrotation
						End Site
						{
							OFFSET 0.000000 0.000000 0.000000
						}
					}
				}
			}
		}
	}
}
MOTION
Frames: 16
Frame Time: 0.008333
0.781623 17.305586 -1.631873 172.184446 -76.002912 -160.103293 -10.572250 -0.226682 -0.223477 -2.684486 -3.791467 -31.237534 0.576203 2.336869 46.458737 4.112288 27.259874 11.156707 9.043500 0.000000 -55.200200 8.116016 -0.173944 0.775169 10.716886 9.908015 -8.914256 2.470078 0.922900 4.116248 -0.953126 -4.185756 -4.399805 -0.694300 0.000000 -43.885500
0.794297 17.304071 -1.643880 171.613462 -75.912076 -159.737221 -10.582850 -0.299765 -0.168444 -2.589471 -4.485726 -32.287379 0.671644 2.461061 48.687419 4.098123 27.168334 12.696407 9.589400 0.000000 -54.779199 8.123763 -0.126096 0.674746 10.642274 9.801685 -8.727516 2.455240 0.898515 4.307182 -0.949523 -4.128775 -4.515669 -0.672900 0.000000 -43.790100
0.807709 17.302650 -1.654843 171.028409 -75.826889 -159.368960 -10.594218 -0.376569 -0.126697 -2.509538 -5.140516 -33.350445 0.761020 2.585827 50.921835 4.073507 26.955459 14.201110 10.051300 0.000001 -54.019000 8.130869 -0.076685 0.571028 10.562901 9.706708 -8.516040 2.437550 0.874009 4.485859 -0.951051 -4.100643 -4.629589 -0.654900 -0.000001 -43.680101
0.821795 17.301498 -1.664970 170.416360 -75.741753 -158.982229 -10.605237 -0.457219 -0.097553 -2.450733 -5.759098 -34.417729 0.845127 2.709712 53.135234 4.042751 26.652195 15.673027 10.439500 -0.000000 -53.426700 8.137466 -0.025592 0.467136 10.473005 9.637062 -8.285471 2.415566 0.848881 4.654089 -0.959155 -4.110307 -4.737510 -0.641400 -0.000000 -43.584200
0.836369 17.300670 -1.674444 169.770014 -75.652908 -158.566345 -10.616337 -0.539733 -0.081394 -2.420857 -6.333191 -35.494611 0.925232 2.835018 55.333033 4.005200 26.252167 17.028889 10.716799 0.000000 -52.694300 8.144299 0.026098 0.365605 10.369346 9.591230 -8.049251 2.389317 0.822134 4.824480 -0.972787 -4.150078 -4.843421 -0.631100 0.000000 -43.498400
0.851298 17.300356 -1.683434 169.079975 -75.555712 -158.106253 -10.626549 -0.624880 -0.074209 -2.422319 -6.873447 -36.579525 1.003104 2.959845 57.494345 3.966834 25.808666 18.286039 10.917100 0.000000 -52.346400 8.152000 0.078333 0.267783 10.247063 9.568173 -7.820894 2.358649 0.793154 5.006587 -0.990874 -4.213225 -4.948477 -0.623001 -0.000000 -43.424799
0.866430 17.300579 -1.692156 168.326175 -75.448716 -157.582142 -10.637022 -0.709962 -0.077054 -2.466485 -7.370984 -37.681343 1.081773 3.088116 59.638291 3.925039 25.310599 19.332265 10.997600 0.000000 -51.803700 8.162732 0.130178 0.172434 10.099994 9.548107 -7.613916 2.324263 0.760383 5.218432 -1.009713 -4.275934 -5.061080 -0.613699 -0.000000 -43.352000
0.881675 17.301424 -1.700676 167.519044 -75.329818 -156.997988 -10.646970 -0.796608 -0.085651 -2.547347 -7.835642 -38.805276 1.163548 3.218170 61.750755 3.884688 24.808765 20.189561 10.998899 -0.000000 -51.445700 8.175797 0.181366 0.082905 9.928880 9.538704 -7.437165 2.286062 0.724518 5.457148 -1.029710 -4.343052 -5.173969 -0.604500 0.000000 -43.302301
0.896781 17.302985 -1.709025 166.668124 -75.200500 -156.358702 -10.656451 -0.884940 -0.098698 -2.662149 -8.270249 -39.958930 1.251242 3.351006 63.836682 3.846901 24.325262 20.825536 10.927900 -0.000000 -51.161300 8.190717 0.231501 0.000665 9.734970 9.541809 -7.291361 2.244243 0.686463 5.717388 -1.051040 -4.416799 -5.284266 -0.596100 0.000000 -43.275700
0.911932 17.305108 -1.717489 165.728541 -75.058115 -155.623838 -10.665347 -0.974833 -0.113426 -2.821811 -8.680739 -41.146422 1.346827 3.486466 65.898017 3.813343 23.888603 21.229849 10.803200 -0.000001 -50.977200 8.211569 0.280753 -0.080715 9.505367 9.515269 -7.195029 2.199935 0.643791 6.025623 -1.066408 -4.452575 -5.403886 -0.582699 0.000000 -43.269400
0.926809 17.307880 -1.725819 164.741892 -74.902309 -154.823939 -10.673034 -1.068062 -0.126119 -3.012073 -9.071075 -42.382038 1.451807 3.623609 67.933031 3.786495 23.525513 21.422385 10.651000 0.000000 -50.959700 8.236776 0.328232 -0.157775 9.247659 9.464122 -7.153255 2.154255 0.598682 6.367858 -1.075657 -4.454439 -5.520849 -0.566500 0.000000 -43.300001
0.941649 17.311137 -1.734033 163.730655 -74.744526 -153.988927 -10.679302 -1.166083 -0.139444 -3.220054 -9.444470 -43.661955 1.567435 3.763320 69.946540 3.766318 23.241532 21.409212 10.479100 -0.000000 -51.030600 8.263123 0.374918 -0.230749 8.974735 9.408404 -7.135015 2.106863 0.553718 6.712769 -1.083880 -4.454678 -5.625395 -0.551700 0.000000 -43.362700
0.956465 17.314753 -1.742378 162.633238 -74.578329 -153.059122 -10.683545 -1.268586 -0.149720 -3.462829 -9.808452 -44.989052 1.693780 3.904173 71.936364 3.753260 23.044300 21.208988 10.299500 -0.000000 -51.037800 8.296587 0.421102 -0.308132 8.665179 9.290911 -7.167371 2.059034 0.505468 7.099998 -1.081216 -4.390775 -5.740115 -0.530000 -0.000000 -43.443400
0.971273 17.318681 -1.750401 161.528022 -74.412006 -152.108743 -10.685107 -1.378117 -0.158323 -3.711278 -10.161652 -46.369726 1.830795 4.046023 73.903178 3.747710 22.929768 20.868824 10.124000 0.000000 -51.075900 8.330916 0.466686 -0.384177 8.344742 9.154625 -7.220798 2.011188 0.458744 7.479520 -1.075079 -4.313828 -5.838157 -0.509500 0.000000 -43.558500
0.986127 17.322779 -1.757957 160.432155 -74.249098 -151.155402 -10.683598 -1.495432 -0.166029 -3.956229 -10.504446 -47.805210 1.978182 4.188630 75.846975 3.748412 22.881346 20.421909 9.952700 0.000000 -51.012700 8.364515 0.511991 -0.459587 8.020635 9.004747 -7.284025 1.963951 0.414843 7.837855 -1.066675 -4.231693 -5.916612 -0.491301 -0.000000 -43.703000
1.001254 17.326892 -1.765396 159.272106 -74.083729 -150.133039 -10.677302 -1.620803 -0.170252 -4.215572 -10.848918 -49.287246 2.133245 4.329120 77.753832 3.755517 22.895651 19.933152 9.802800 -0.000001 -51.006600 8.403274 0.558419 -0.543136 7.669168 8.794072 -7.375392 1.917437 0.369991 8.212882 -1.048657 -4.094340 -6.001121 -0.468100 -0.000000 -43.856000
